<svg width="180" height="81" viewBox="0 0 180 81" fill="none" xmlns="http://www.w3.org/2000/svg">
<mask id="mask0_207_79" style="mask-type:alpha" maskUnits="userSpaceOnUse" x="0" y="0" width="81" height="81">
<rect width="80.53" height="80.53" fill="#D9D9D9"/>
</mask>
<g mask="url(#mask0_207_79)">
<path fill-rule="evenodd" clip-rule="evenodd" d="M49.2652 7.82812H7.40474L2.01025 27.9606H43.8708L49.2652 7.82812Z" fill="#00B207"/>
<path fill-rule="evenodd" clip-rule="evenodd" d="M10.2134 72.7019H31.9462L42.1358 34.6738H20.403L10.2134 72.7019Z" fill="#00B207"/>
<path fill-rule="evenodd" clip-rule="evenodd" d="M46.8307 72.6956H31.8232L36.2823 55.9227H44.1816C51.903 55.9227 58.1625 49.6632 58.1625 41.9418C58.1625 34.2204 51.903 27.9609 44.1816 27.9609H43.716L49.0654 7.83936C65.9535 8.98745 79.2967 23.0503 79.2967 40.2296C79.2967 58.1601 64.7612 72.6956 46.8307 72.6956Z" fill="#00B207"/>
</g>
<path fill-rule="evenodd" clip-rule="evenodd" d="M72.6997 72.6986H84.9043L94.8841 35.7891H82.6795L72.6997 72.6986Z" fill="#00B207"/>
<path d="M81.6484 53.6875H95.0701L106.255 72.7015H92.8332L81.6484 53.6875Z" fill="#00B207"/>
<path d="M80.5303 54.8047H95.0704L117.44 35.7907H102.9L80.5303 54.8047Z" fill="#00B207"/>
<path d="M87.2425 14.2086H92.6389L89.7045 27.9111H94.7528L94.33 30H83.8853L87.2425 14.2086ZM102.508 19.033C104.481 19.033 105.915 19.3812 106.811 20.0775C107.756 20.807 108.228 22.0172 108.228 23.7083C108.228 24.7528 108.054 25.6978 107.706 26.5433C107.358 27.3722 106.869 28.0603 106.239 28.6074C104.979 29.6684 103.155 30.1989 100.768 30.1989C98.7284 30.1989 97.2695 29.8093 96.3908 29.0301C95.4458 28.2178 94.9733 26.9992 94.9733 25.3745C94.9733 24.2968 95.1888 23.3187 95.6198 22.44C96.0675 21.5613 96.7058 20.8318 97.5347 20.2516C98.745 19.4392 100.403 19.033 102.508 19.033ZM100.817 28.5079C101.232 28.5079 101.588 28.2758 101.887 27.8116C102.202 27.3474 102.45 26.7837 102.633 26.1205C102.815 25.4408 102.948 24.7445 103.031 24.0316C103.13 23.3021 103.18 22.6721 103.18 22.1416C103.18 21.6774 103.13 21.3292 103.031 21.0971C102.948 20.8484 102.757 20.7241 102.459 20.7241C102.011 20.7241 101.621 20.9645 101.29 21.4453C100.975 21.9261 100.718 22.498 100.519 23.1612C100.32 23.8243 100.171 24.5041 100.071 25.2004C99.9884 25.8967 99.947 26.4604 99.947 26.8914C99.947 27.9691 100.237 28.5079 100.817 28.5079ZM118.379 19.3066H122.408L120.369 28.9804C120.22 29.7264 119.971 30.4145 119.623 31.0445C119.275 31.6745 118.785 32.2216 118.155 32.6858C117.542 33.15 116.763 33.5147 115.818 33.78C114.889 34.0453 113.754 34.1779 112.411 34.1779C112.162 34.1779 111.864 34.1696 111.516 34.153C111.167 34.153 110.811 34.1447 110.446 34.1282C110.082 34.1282 109.733 34.1199 109.402 34.1033C109.07 34.0867 108.805 34.0701 108.606 34.0536L109.079 32.263C109.609 32.3459 110.148 32.3874 110.695 32.3874C111.259 32.4039 111.739 32.4122 112.137 32.4122C112.635 32.4122 113.049 32.3625 113.381 32.263C113.729 32.1801 114.011 32.0392 114.226 31.8403C114.458 31.6413 114.641 31.3761 114.773 31.0445C114.923 30.7129 115.039 30.3067 115.122 29.8259L115.42 28.2095H115.246C115.146 28.3587 114.997 28.5411 114.798 28.7566C114.616 28.9555 114.375 29.1545 114.077 29.3534C113.779 29.5358 113.422 29.6933 113.008 29.8259C112.61 29.942 112.154 30 111.64 30C111.06 30 110.562 29.9171 110.148 29.7513C109.75 29.5689 109.427 29.3286 109.178 29.0301C108.929 28.7151 108.747 28.3504 108.631 27.9359C108.515 27.5049 108.457 27.0407 108.457 26.5433C108.457 26.3278 108.473 25.9962 108.507 25.5486C108.54 25.1009 108.614 24.5953 108.73 24.0316C108.863 23.4679 109.045 22.8959 109.277 22.3157C109.526 21.7188 109.849 21.18 110.247 20.6992C110.662 20.2184 111.167 19.8205 111.764 19.5055C112.378 19.1905 113.115 19.033 113.978 19.033C114.243 19.033 114.533 19.0579 114.848 19.1076C115.163 19.1574 115.47 19.2486 115.768 19.3812C116.067 19.5138 116.332 19.7045 116.564 19.9532C116.796 20.2018 116.978 20.5251 117.111 20.923H117.26L118.379 19.3066ZM115.594 21.4701C115.196 21.4701 114.865 21.6857 114.599 22.1167C114.334 22.5312 114.119 23.0203 113.953 23.5839C113.787 24.1476 113.663 24.7113 113.58 25.275C113.513 25.8221 113.48 26.2283 113.48 26.4936C113.48 26.8251 113.53 27.107 113.629 27.3391C113.745 27.5546 113.944 27.6624 114.226 27.6624C114.392 27.6624 114.55 27.6209 114.699 27.538C114.865 27.4551 115.014 27.3639 115.146 27.2645C115.296 27.1484 115.42 27.0324 115.519 26.9163C115.635 26.8003 115.718 26.7091 115.768 26.6428L116.688 22.2908C116.556 22.1084 116.398 21.9261 116.216 21.7437C116.05 21.5613 115.843 21.4701 115.594 21.4701ZM126.664 30H121.615L123.878 19.3066H128.976L126.664 30ZM129.623 16.0488C129.623 16.4301 129.54 16.7617 129.374 17.0436C129.225 17.3254 129.018 17.5658 128.753 17.7647C128.504 17.9637 128.214 18.1129 127.882 18.2124C127.551 18.3118 127.211 18.3616 126.863 18.3616C126.199 18.3616 125.644 18.2041 125.196 17.8891C124.749 17.5741 124.525 17.0767 124.525 16.397C124.525 16.0322 124.6 15.7089 124.749 15.4271C124.898 15.1287 125.097 14.8883 125.346 14.7059C125.611 14.507 125.909 14.3578 126.241 14.2583C126.589 14.1588 126.945 14.1091 127.31 14.1091C127.957 14.1091 128.504 14.2666 128.951 14.5816C129.399 14.8966 129.623 15.3857 129.623 16.0488ZM136.038 22.44C136.055 22.3571 136.071 22.2742 136.088 22.1913C136.105 22.1084 136.113 22.0172 136.113 21.9178C136.113 21.6193 136.055 21.3458 135.939 21.0971C135.839 20.8318 135.632 20.6992 135.317 20.6992C135.035 20.6992 134.753 20.8236 134.472 21.0722C134.19 21.3043 134.049 21.6193 134.049 22.0172C134.049 22.2825 134.115 22.498 134.248 22.6638C134.397 22.813 134.588 22.9374 134.82 23.0368C135.052 23.1363 135.309 23.2192 135.591 23.2855C135.889 23.3518 136.179 23.4182 136.461 23.4845C136.859 23.5839 137.232 23.7083 137.58 23.8575C137.945 23.9901 138.268 24.1725 138.55 24.4046C138.832 24.6367 139.056 24.9268 139.221 25.275C139.387 25.6066 139.47 26.0211 139.47 26.5184C139.47 27.2147 139.304 27.8033 138.973 28.2841C138.658 28.7483 138.21 29.1296 137.63 29.428C137.066 29.7099 136.395 29.9088 135.615 30.0249C134.853 30.1409 134.032 30.1989 133.153 30.1989C131.811 30.1989 130.7 30.0995 129.821 29.9005C128.942 29.7016 128.329 29.5109 127.981 29.3286L128.503 26.8417H131.86C131.844 26.9246 131.835 27.0075 131.835 27.0904C131.835 27.1567 131.835 27.2313 131.835 27.3142C131.835 27.6955 131.918 28.0022 132.084 28.2343C132.267 28.4499 132.573 28.5576 133.004 28.5576C133.485 28.5576 133.825 28.425 134.024 28.1597C134.239 27.8779 134.347 27.6209 134.347 27.3888C134.347 27.1567 134.256 26.9578 134.074 26.792C133.908 26.6096 133.692 26.4604 133.427 26.3443C133.162 26.2117 132.863 26.1039 132.532 26.0211C132.217 25.9216 131.91 25.8304 131.612 25.7475C131.396 25.6978 131.147 25.6149 130.866 25.4988C130.6 25.3828 130.343 25.217 130.095 25.0014C129.846 24.7859 129.639 24.5124 129.473 24.1808C129.307 23.8326 129.224 23.4016 129.224 22.8876C129.224 22.1582 129.398 21.553 129.747 21.0722C130.111 20.5749 130.575 20.177 131.139 19.8786C131.719 19.5801 132.366 19.3646 133.079 19.232C133.808 19.0993 134.538 19.033 135.267 19.033C136.179 19.033 137.041 19.1159 137.854 19.2817C138.666 19.4475 139.329 19.663 139.843 19.9283L139.271 22.44H136.038ZM140.726 19.3066C141.339 19.1739 141.878 19.0247 142.342 18.8589C142.806 18.6932 143.229 18.4859 143.61 18.2372C144.008 17.9886 144.381 17.6818 144.73 17.3171C145.094 16.9524 145.484 16.5047 145.898 15.9742H148.46L147.739 19.3066H149.678L149.355 20.9728H147.39L146.371 25.8221C146.288 26.2034 146.222 26.5433 146.172 26.8417C146.122 27.1401 146.097 27.3722 146.097 27.538C146.097 27.8696 146.213 28.0768 146.445 28.1597C146.694 28.2426 147.15 28.2841 147.813 28.2841L147.44 30C147.324 30.0332 147.142 30.058 146.893 30.0746C146.661 30.0912 146.396 30.1078 146.097 30.1243C145.815 30.1575 145.517 30.1741 145.202 30.1741C144.904 30.1907 144.638 30.1989 144.406 30.1989C143.992 30.1989 143.586 30.1658 143.188 30.0995C142.79 30.0497 142.433 29.942 142.118 29.7762C141.803 29.5938 141.546 29.3368 141.347 29.0053C141.165 28.6737 141.074 28.2261 141.074 27.6624C141.074 27.4634 141.082 27.2147 141.099 26.9163C141.132 26.6179 141.19 26.2863 141.273 25.9216L142.317 20.9728H140.378L140.726 19.3066ZM153.374 30H148.326L150.589 19.3066H155.687L153.374 30ZM156.333 16.0488C156.333 16.4301 156.25 16.7617 156.084 17.0436C155.935 17.3254 155.728 17.5658 155.463 17.7647C155.214 17.9637 154.924 18.1129 154.592 18.2124C154.261 18.3118 153.921 18.3616 153.573 18.3616C152.91 18.3616 152.354 18.2041 151.907 17.8891C151.459 17.5741 151.235 17.0767 151.235 16.397C151.235 16.0322 151.31 15.7089 151.459 15.4271C151.608 15.1287 151.807 14.8883 152.056 14.7059C152.321 14.507 152.619 14.3578 152.951 14.2583C153.299 14.1588 153.656 14.1091 154.02 14.1091C154.667 14.1091 155.214 14.2666 155.662 14.5816C156.109 14.8966 156.333 15.3857 156.333 16.0488ZM166.155 29.4032C165.459 29.685 164.721 29.8839 163.942 30C163.18 30.1326 162.309 30.1989 161.331 30.1989C160.469 30.1989 159.673 30.1161 158.944 29.9503C158.231 29.7679 157.609 29.4861 157.078 29.1047C156.548 28.7234 156.133 28.2343 155.835 27.6375C155.537 27.0241 155.387 26.2863 155.387 25.4242C155.387 24.5289 155.537 23.7 155.835 22.9374C156.15 22.1582 156.614 21.4784 157.228 20.8982C157.858 20.3179 158.653 19.862 159.615 19.5304C160.577 19.1988 161.721 19.033 163.047 19.033C164.125 19.033 165.061 19.1242 165.857 19.3066C166.653 19.4724 167.308 19.862 167.822 20.4754L167.125 23.6586H163.743C163.76 23.3767 163.776 23.128 163.793 22.9125C163.81 22.697 163.818 22.4566 163.818 22.1913C163.818 21.6608 163.76 21.2878 163.644 21.0722C163.528 20.8401 163.337 20.7241 163.072 20.7241C162.608 20.7241 162.201 20.9562 161.853 21.4204C161.505 21.868 161.215 22.4151 160.983 23.0617C160.767 23.6917 160.601 24.3632 160.485 25.0761C160.386 25.7724 160.336 26.3692 160.336 26.8666C160.336 27.0489 160.345 27.2396 160.361 27.4386C160.378 27.6209 160.411 27.795 160.461 27.9608C160.527 28.1266 160.61 28.2592 160.709 28.3587C160.809 28.4582 160.95 28.5079 161.132 28.5079C161.298 28.5079 161.488 28.4582 161.704 28.3587C161.92 28.2592 162.127 28.11 162.326 27.9111C162.525 27.6955 162.715 27.422 162.898 27.0904C163.08 26.7588 163.221 26.3609 163.32 25.8967H166.877L166.155 29.4032ZM174.971 22.44C174.987 22.3571 175.004 22.2742 175.021 22.1913C175.037 22.1084 175.046 22.0172 175.046 21.9178C175.046 21.6193 174.987 21.3458 174.871 21.0971C174.772 20.8318 174.565 20.6992 174.25 20.6992C173.968 20.6992 173.686 20.8236 173.404 21.0722C173.122 21.3043 172.981 21.6193 172.981 22.0172C172.981 22.2825 173.048 22.498 173.18 22.6638C173.33 22.813 173.52 22.9374 173.752 23.0368C173.984 23.1363 174.241 23.2192 174.523 23.2855C174.822 23.3518 175.112 23.4182 175.394 23.4845C175.792 23.5839 176.165 23.7083 176.513 23.8575C176.877 23.9901 177.201 24.1725 177.483 24.4046C177.764 24.6367 177.988 24.9268 178.154 25.275C178.32 25.6066 178.403 26.0211 178.403 26.5184C178.403 27.2147 178.237 27.8033 177.905 28.2841C177.59 28.7483 177.143 29.1296 176.562 29.428C175.999 29.7099 175.327 29.9088 174.548 30.0249C173.786 30.1409 172.965 30.1989 172.086 30.1989C170.743 30.1989 169.632 30.0995 168.754 29.9005C167.875 29.7016 167.262 29.5109 166.914 29.3286L167.436 26.8417H170.793C170.776 26.9246 170.768 27.0075 170.768 27.0904C170.768 27.1567 170.768 27.2313 170.768 27.3142C170.768 27.6955 170.851 28.0022 171.017 28.2343C171.199 28.4499 171.506 28.5576 171.937 28.5576C172.418 28.5576 172.758 28.425 172.957 28.1597C173.172 27.8779 173.28 27.6209 173.28 27.3888C173.28 27.1567 173.189 26.9578 173.006 26.792C172.841 26.6096 172.625 26.4604 172.36 26.3443C172.094 26.2117 171.796 26.1039 171.464 26.0211C171.149 25.9216 170.843 25.8304 170.544 25.7475C170.329 25.6978 170.08 25.6149 169.798 25.4988C169.533 25.3828 169.276 25.217 169.027 25.0014C168.779 24.7859 168.571 24.5124 168.406 24.1808C168.24 23.8326 168.157 23.4016 168.157 22.8876C168.157 22.1582 168.331 21.553 168.679 21.0722C169.044 20.5749 169.508 20.177 170.072 19.8786C170.652 19.5801 171.299 19.3646 172.012 19.232C172.741 19.0993 173.471 19.033 174.2 19.033C175.112 19.033 175.974 19.1159 176.786 19.2817C177.599 19.4475 178.262 19.663 178.776 19.9283L178.204 22.44H174.971Z" fill="white"/>
</svg>
